<?xml version="1.0" encoding="utf-8"?>
<!-- Svg Vector Icons : http://www.onlinewebfonts.com/icon -->
<!DOCTYPE svg PUBLIC "-//W3C//DTD SVG 1.1//EN" "http://www.w3.org/Graphics/SVG/1.1/DTD/svg11.dtd">
<svg version="1.1" xmlns="http://www.w3.org/2000/svg" xmlns:xlink="http://www.w3.org/1999/xlink" x="0px" y="0px" viewBox="0 0 1000 1000" enable-background="new 0 0 1000 1000" xml:space="preserve">
<metadata> Svg Vector Icons : http://www.onlinewebfonts.com/icon </metadata>
<g><g transform="translate(0.000000,511.000000) scale(0.100000,-0.100000)"><path d="M6960.1,5005c-44.4-4.7-137.9-16.3-203.3-23.4c-77.1-7-123.9-23.4-123.9-42.1c0-16.4,77.1-187,172.9-378.6c577.2-1166.2,1470-2058.9,2640.9-2640.9c191.6-95.8,362.2-172.9,376.3-172.9c37.4,0,56.1,130.9,72.4,549.2c42.1,990.9-210.3,1825.2-668.4,2208.5c-245.4,205.7-661.4,376.3-1110.1,458.1C7916,4997.9,7147.1,5026,6960.1,5005z"/><path d="M5721.5,4785.3c-897.4-243-1769.1-661.4-2519.3-1208.3c-348.2-254.7-488.5-373.9-829.7-708.1c-717.5-698.8-1255-1470-1664-2397.8C491.2-19.7,220.1-872.7,269.2-917.1c9.3-11.7,114.5-58.4,229-105.2c1458.3-593.6,2748.4-1886,3367.7-3365.3c46.7-114.5,93.5-219.7,102.8-229c35.1-39.7,733.8,168.3,1180.2,350.6C7401.8-3350,9098.5-1412.6,9694.5,926.8c28.1,107.5,42.1,203.3,30.4,212.7c-9.3,9.3-112.2,56.1-229,105.2c-1481.7,624-2694.6,1825.2-3346.7,3318.6c-65.4,154.2-135.5,282.8-151.9,285.1C5980.9,4850.7,5857,4822.7,5721.5,4785.3z M5644.4,2004.2c86.5-32.7,1194.2-1135.8,1236.3-1231.6c70.1-158.9,9.4-315.5-147.2-385.6c-154.2-67.8-233.7-35.1-467.4,196.3l-194,191.6L5931.8,637c-77.1-77.1-140.2-149.6-140.2-161.3c0-14,84.1-109.9,189.3-215c170.6-170.6,191.6-201,201-296.8c21-187-100.5-320.2-287.5-320.2c-116.9,0-161.3,28-366.9,229l-180,180L5202.7-94.5l-147.2-144.9l180-180c201-208,229-250,229-369.2c0-182.3-147.2-310.8-327.2-285.1c-86.5,11.7-126.2,37.4-289.8,201c-105.2,105.2-201,189.3-215,189.3c-11.7,0-84.1-63.1-161.3-140.2l-137.9-140.2l191.6-194c231.4-233.7,264.1-313.2,196.3-467.4c-67.8-149.6-217.4-212.7-371.6-156.6C4263.2-1749.1,3155.4-646,3113.4-550.2c-70.1,158.9-9.3,315.5,147.2,385.6c154.2,67.8,233.7,35.1,467.4-196.3l194-191.6l140.2,137.9c77.1,77.1,140.2,149.6,140.2,161.3c0,14-84.1,109.9-189.3,215c-170.6,170.6-191.6,201-201,296.8c-21,187,100.5,320.2,287.5,320.2c116.9,0,161.3-28,366.9-229l180-180l144.9,147.2l147.2,144.9l-180,180c-201,205.7-229,250.1-229,366.9c0,187,133.2,308.5,320.2,287.5c95.8-9.4,126.2-30.4,296.8-201c105.2-105.2,201-189.3,215-189.3c11.7,0,84.2,63.1,161.3,140.2l137.9,140.2l-191.6,194c-231.4,231.4-264.1,313.2-196.3,467.4C5340.6,1997.2,5490.1,2060.3,5644.4,2004.2z"/><path d="M119.6-1658C84.6-1915,98.6-2754,145.3-3008.8c81.8-451,243.1-843.7,444-1093.7C975-4574.6,1807-4831.7,2811.9-4787.3c418.3,16.3,549.2,35.1,549.2,72.4c0,14-77.1,184.6-172.9,376.3C2606.2-3167.7,1713.5-2274.9,547.3-1697.7c-191.6,95.8-362.2,172.9-378.6,172.9C150-1524.7,131.3-1576.2,119.6-1658z"/></g></g>
</svg>